<svg width="238" height="201" viewBox="0 0 238 201" fill="none" xmlns="http://www.w3.org/2000/svg">
<g opacity="0.6">
<path d="M99.5951 31.4222C105.38 25.6376 105.38 16.2589 99.5952 10.4743C93.8106 4.6897 84.4319 4.68971 78.6473 10.4743C72.8627 16.2589 72.8627 25.6376 78.6473 31.4222C84.4319 37.2068 93.8106 37.2068 99.5951 31.4222Z" fill="#FABA23"/>
<path d="M100.273 25.8311C97.573 31.9846 90.394 34.7887 84.2405 32.1014C83.5914 31.8158 82.9942 31.4912 82.423 31.1148C81.4623 30.4786 80.6185 29.7257 79.8915 28.8819C79.6189 28.5573 79.3592 28.2327 79.1255 27.8822C77.3729 25.3507 76.62 22.2091 77.1003 19.0934C77.2561 18.0678 77.5547 17.0552 77.9831 16.0686C79.9953 11.4729 84.5001 8.74668 89.2126 8.77264C90.8223 8.78563 92.4451 9.11018 94.0159 9.79823C95.3661 10.3954 96.5604 11.2003 97.573 12.1739C97.8716 12.4725 98.1702 12.7711 98.4298 13.0957C99.1568 13.9655 99.767 14.9261 100.221 15.9517C101.584 18.9765 101.701 22.5466 100.273 25.8311Z" fill="#FAD332"/>
<path d="M63.6295 96.5549C73.0469 94.0255 78.6308 84.3407 76.1014 74.9233C73.572 65.5059 63.8872 59.922 54.4697 62.4514C45.0523 64.9808 39.4684 74.6656 41.9978 84.083C44.5272 93.5005 54.212 99.0843 63.6295 96.5549Z" fill="#FABA23"/>
<path d="M72.323 85.3153C69.1165 92.6502 60.5613 95.9995 53.2264 92.78C52.4605 92.4425 51.7335 92.053 51.0584 91.6116C49.916 90.8586 48.9034 89.9629 48.0336 88.9633C47.709 88.5868 47.3975 88.1843 47.1119 87.7689C45.0218 84.7571 44.126 81.0053 44.6972 77.2924C44.879 76.0721 45.2295 74.8648 45.7487 73.6834C48.1504 68.2179 53.512 64.9594 59.1203 64.9984C61.0286 65.0114 62.9759 65.4008 64.8453 66.2187C66.4551 66.9197 67.8832 67.8934 69.0775 69.0488C69.441 69.3993 69.7785 69.7628 70.1031 70.1393C70.9729 71.1778 71.6999 72.3203 72.2451 73.5406C73.8938 77.1496 74.0367 81.4077 72.323 85.3153Z" fill="#FAD332"/>
<path d="M191.083 106.256C199.487 101.31 202.29 90.4884 197.344 82.0851C192.398 73.6817 181.577 70.8787 173.174 75.8244C164.77 80.77 161.967 91.5915 166.913 99.9949C171.859 108.398 182.68 111.201 191.083 106.256Z" fill="#FABA23"/>
<path d="M195.419 96.869C192.212 104.204 183.657 107.553 176.322 104.334C175.556 103.996 174.829 103.607 174.154 103.165C173.012 102.412 171.999 101.517 171.13 100.517C170.805 100.14 170.493 99.7381 170.208 99.3226C168.118 96.3108 167.222 92.559 167.793 88.8461C167.975 87.6258 168.325 86.4185 168.845 85.2371C171.246 79.7717 176.608 76.5132 182.216 76.5521C184.125 76.5651 186.072 76.9545 187.941 77.7724C189.551 78.4735 190.979 79.4471 192.173 80.6025C192.537 80.953 192.874 81.3165 193.199 81.693C194.069 82.7316 194.796 83.874 195.341 85.0943C196.977 88.7033 197.133 92.9484 195.419 96.869Z" fill="#FAD332"/>
<path d="M180.567 106.048C178.997 105.723 178.698 105.853 177.841 107.177C178.179 105.632 178.049 105.321 176.712 104.451C178.282 104.775 178.581 104.645 179.438 103.321C179.113 104.892 179.243 105.191 180.567 106.048Z" fill="white"/>
<path d="M149.125 52.1596L139.116 78.8767L107.621 162.897L104.363 171.595L94.9507 168.115L42.7368 148.785L66.8964 84.5109L79.2034 51.7961L79.3462 51.4067L114.203 39.2295L149.125 52.1596Z" fill="#3F964F"/>
<path d="M102.662 46.7461L126.302 55.496C124.186 61.2211 127.107 67.5823 132.832 69.7114L103.428 147.656C97.7028 145.54 91.3286 148.461 89.2125 154.186L65.5722 145.436C67.6883 139.711 64.7673 133.349 59.0422 131.22L88.4466 53.2761C94.1717 55.4051 100.546 52.4842 102.662 46.7461Z" fill="#4EAD60"/>
<path d="M102.896 79.9401C112.412 83.4583 117.267 94.0257 113.736 103.529C110.205 113.031 99.6502 117.9 90.1474 114.369C80.6315 110.85 75.7762 100.283 79.3073 90.7801C82.8385 81.2773 93.3929 76.409 102.896 79.9401Z" fill="#3F964F"/>
<path d="M114.203 39.2285L100.338 64.3228L79.2033 51.7951L78.8398 51.5874L79.3461 51.4057L114.203 39.2285Z" fill="#3F964F"/>
<path opacity="0.2" d="M76.1008 60.1823L100.338 64.3236L79.2036 51.7959L76.1008 60.1823Z" fill="#193F1E"/>
<path opacity="0.2" d="M114.203 39.2285L100.338 64.3228L116.527 40.0853L114.203 39.2285Z" fill="#193F1E"/>
<path opacity="0.2" d="M139.116 78.877L107.621 162.897L94.9506 168.116L42.7368 148.785L66.8964 84.5241H78.0999C82.3321 84.5241 85.9281 91.0801 87.2782 100.219L139.116 78.877Z" fill="#193F1E"/>
<path d="M166.855 71.311L24.9856 129.719L49.9984 190.474L191.868 132.066L166.855 71.311Z" fill="#3F964F"/>
<path d="M164.34 94.2483L173.934 117.551C168.286 119.875 165.586 126.34 167.91 131.987L66.9614 173.556C64.6376 167.908 58.1726 165.208 52.5254 167.532L42.9316 144.229C48.5788 141.905 51.2791 135.44 48.9553 129.793L149.917 88.2246C152.228 93.8718 158.693 96.5721 164.34 94.2483Z" fill="#4EAD60"/>
<path d="M124.459 122.913C128.315 132.286 123.849 143.023 114.476 146.878C105.103 150.734 94.3666 146.268 90.5109 136.895C86.6552 127.522 91.1211 116.786 100.494 112.93C109.867 109.062 120.603 113.54 124.459 122.913Z" fill="#3F964F"/>
<path d="M85.1753 112.863V177.579H19.4731V112.863H65.7152C65.7672 99.9203 70.1032 89.4697 75.4518 89.4697C80.7874 89.4697 85.1234 99.9203 85.1753 112.863Z" fill="#3F964F"/>
<path d="M75.4388 89.5605H29.2097V162.312H75.4388V89.5605Z" fill="#4EAD60"/>
<path d="M68.726 130.397C68.8821 121.342 61.6684 113.876 52.6139 113.72C43.5593 113.564 36.0927 120.777 35.9366 129.832C35.7806 138.886 42.9942 146.353 52.0487 146.509C61.1033 146.665 68.5699 139.452 68.726 130.397Z" fill="#3F964F"/>
<path opacity="0.2" d="M85.1753 112.863V119.497H19.4731V89.4697H75.4388C80.7874 89.4697 85.1234 99.9203 85.1753 112.863Z" fill="#193F1E"/>
<path d="M75.4387 89.4707C70.0901 89.4707 65.7541 99.9342 65.7022 112.864H0C0.0519282 99.9213 4.38793 89.4707 9.73654 89.4707H75.4387Z" fill="#3F964F"/>
<path d="M63.5731 89.4697C61.2103 89.4697 59.1332 91.6118 57.9259 94.8573C54.3039 94.9482 51.3959 97.7263 51.3959 101.154V101.167H18.1748V101.154C18.1748 98.0119 15.7212 95.4025 12.5146 94.9352C13.709 91.6507 15.7991 89.4697 18.1878 89.4697H63.5731Z" fill="#4EAD60"/>
<path d="M159.69 132.276C170.368 129.273 176.59 118.183 173.588 107.505C170.585 96.8271 159.495 90.6049 148.817 93.6074C138.139 96.6099 131.917 107.7 134.919 118.378C137.922 129.056 149.012 135.278 159.69 132.276Z" fill="#FABA23"/>
<path d="M169.351 119.561C165.69 127.908 155.966 131.712 147.619 128.051C146.749 127.675 145.931 127.22 145.152 126.714C143.854 125.857 142.699 124.844 141.712 123.689C141.336 123.261 140.985 122.806 140.674 122.339C138.298 118.912 137.272 114.641 137.921 110.421C138.129 109.032 138.531 107.656 139.116 106.319C141.842 100.101 147.943 96.4008 154.331 96.4398C156.512 96.4527 158.719 96.8941 160.848 97.8288C162.678 98.6337 164.301 99.7372 165.664 101.048C166.079 101.451 166.469 101.866 166.832 102.295C167.832 103.476 168.637 104.774 169.273 106.163C171.129 110.266 171.298 115.108 169.351 119.561Z" fill="#FAD332"/>
<path d="M165.664 101.036L140.674 122.34C138.298 118.913 137.272 114.642 137.921 110.422L154.331 96.4277C156.512 96.4407 158.719 96.8821 160.848 97.8168C162.691 98.6347 164.301 99.7252 165.664 101.036Z" fill="#FAEE6C"/>
<path d="M169.273 106.164L145.152 126.714C143.854 125.858 142.699 124.845 141.712 123.69L166.832 102.282C167.832 103.464 168.65 104.775 169.273 106.164Z" fill="#FAEE6C"/>
<path d="M146.477 96.0899C144.971 97.9074 144.932 98.3878 146.074 100.413C144.296 98.92 143.802 98.8681 141.751 100.011C143.257 98.193 143.296 97.7127 142.154 95.6875C143.971 97.1934 144.451 97.2324 146.477 96.0899Z" fill="white"/>
<path d="M174.557 109.008C174.557 109.008 177.075 121.808 172.103 133.92C166.729 134.829 165.755 133.297 165.755 133.297L165.937 114.525L174.557 109.008Z" fill="#D15F0A"/>
<path d="M154.772 144.994L164.522 134.557C164.522 134.557 166.936 130.416 172.09 133.908C171.584 137.036 166.807 142.32 159.459 147.851C156.875 147.617 154.772 144.994 154.772 144.994Z" fill="#D15F0A"/>
<path d="M165.145 103.583L163.925 106.231L169.896 109.736L172.947 107.399L172.869 103.362L166.365 100.986L165.145 103.583Z" fill="#F37A50"/>
<path d="M189.175 183.084C186.111 186.862 179.438 183.409 179.373 188.731C190.006 189.237 194.432 189.549 194.432 189.549C194.484 188.329 194.432 185.421 194.251 184.278L189.175 183.084Z" fill="#201D40"/>
<path d="M229.601 177.917C229.497 182.772 222.188 184.888 225.421 189.133C234.132 183.006 238 179.955 238 179.955C237.286 178.955 235.287 176.177 234.443 175.372L229.601 177.917Z" fill="#201D40"/>
<path d="M195.484 121.509L209.933 128.156C209.933 128.156 199.612 150.407 193.368 157.456C192.277 158.689 185.605 157.222 185.059 155.846C183.073 150.835 195.484 121.509 195.484 121.509Z" fill="#0063F5"/>
<path d="M194.277 154.627C197.431 164.181 195.64 184.81 195.64 184.81C195.64 184.81 190.603 184.291 187.188 183.239C186.202 166.609 184.592 159.054 184.917 152.952C186.669 149.135 192.018 149.369 194.277 154.627Z" fill="#0063F5"/>
<path d="M198.768 124.677L215.385 119.705C215.385 119.705 217.54 147.019 215.97 156.301C215.697 157.911 209.868 160.04 208.674 159.158C204.338 155.977 198.768 124.677 198.768 124.677Z" fill="#0150C6"/>
<path d="M215.061 152.731C223.603 157.145 234.988 175.605 234.988 175.605C234.988 175.605 231.782 177.501 228.484 178.89C215.996 167.751 212.633 163.104 208.674 159.17C205.61 155.12 209.946 150.148 215.061 152.731Z" fill="#0150C6"/>
<path d="M176.231 98.3899C176.231 98.3899 173.025 101.285 172.142 103.128C171.623 109.412 169.013 109.087 169.013 109.087C167.624 110.58 165.95 114.527 165.95 114.527C172.506 119.057 190.07 135.999 190.07 135.999C190.07 135.999 203.039 133.013 207.557 129.521C213.75 124.718 215.398 119.706 215.398 119.706C209.959 112.359 203.87 107.594 193.718 100.986C189.824 98.4678 179.763 95.8194 176.231 98.3899Z" fill="#FF6D00"/>
<path d="M164.249 94.0399C168.364 98.0124 169.182 103.841 166.067 107.074C162.951 110.306 157.083 109.709 152.968 105.75C148.852 101.777 148.035 95.9483 151.15 92.7157C154.266 89.4832 160.134 90.0804 164.249 94.0399Z" fill="#F37A50"/>
<path d="M157.914 102.867C158.29 104.152 158.719 105.762 158.719 105.762C158.719 105.762 159.887 106.256 160.965 105.087C160.315 105.399 159.537 105.593 159.043 104.789C158.563 103.984 157.914 102.867 157.914 102.867Z" fill="#DE623C"/>
<path d="M161.666 89.8596C157.602 86.2636 153.227 89.2105 153.227 89.2105C153.227 89.2105 153.578 88.0811 152.098 87.3281C152.02 88.2499 151.63 89.1456 151.02 89.8337C146.866 94.4423 145.386 98.1681 147.697 99.1158C148.515 99.4534 146.503 102.933 152.163 104.893C151.851 104.192 150.008 102.413 150.267 101.115C150.527 99.8169 151.695 101.556 153.071 99.1807C154.448 96.7791 154.59 94.663 156.654 93.6893C158.394 92.9883 164.885 95.2731 165.184 95.6107C164.483 94.8317 163.457 91.4434 161.666 89.8596Z" fill="#201D40"/>
<path d="M155.434 107.62C155.434 107.62 158.225 109.022 159.29 108.97C158.303 108.061 160.705 106.218 161.549 105.27C163.068 103.543 162.808 100.467 165.69 101.635C167.56 99.3891 163.016 94.7285 163.016 94.7285C169.247 97.0912 171.104 102.44 167.443 108.515C165.015 112.527 158.706 111.073 155.434 107.62Z" fill="#201D40"/>
<path d="M159.602 100.012C159.887 99.6741 159.835 99.1808 159.511 98.9082C159.173 98.6226 158.68 98.6745 158.407 98.9991C158.122 99.3366 158.174 99.8299 158.498 100.103C158.823 100.375 159.316 100.336 159.602 100.012Z" fill="black"/>
<path d="M155.551 105.101C155.837 104.763 155.785 104.27 155.46 103.997C155.123 103.711 154.629 103.763 154.357 104.088C154.071 104.425 154.123 104.919 154.448 105.191C154.772 105.464 155.265 105.425 155.551 105.101Z" fill="black"/>
<path d="M153.448 105.178C153.539 105.075 153.565 104.932 153.513 104.802C153.383 104.426 153.383 104.114 153.513 103.867C153.747 103.426 154.292 103.27 154.305 103.27C154.513 103.218 154.629 102.997 154.577 102.79C154.526 102.582 154.305 102.465 154.097 102.517C154.058 102.53 153.214 102.751 152.825 103.491C152.578 103.945 152.565 104.477 152.773 105.062C152.838 105.269 153.072 105.373 153.266 105.308C153.357 105.269 153.409 105.23 153.448 105.178Z" fill="#201D40"/>
<path d="M159.64 97.83C159.692 97.7651 159.731 97.6872 159.731 97.5833C159.731 97.3626 159.562 97.1939 159.355 97.1809C158.537 97.1549 157.901 97.3626 157.472 97.804C156.914 98.3622 156.94 99.0892 156.94 99.1152C156.953 99.3359 157.135 99.5047 157.343 99.4917C157.563 99.4787 157.719 99.3099 157.719 99.0892C157.719 99.0762 157.719 98.6608 158.031 98.3493C158.303 98.0766 158.732 97.9468 159.329 97.9728C159.446 97.9728 159.562 97.9209 159.64 97.83Z" fill="#201D40"/>
<path d="M163.068 94.6887C163.236 96.0258 164.262 96.9865 165.352 96.8567C166.443 96.7139 167.196 95.5196 167.027 94.1954C166.858 92.8582 165.833 91.8976 164.742 92.0274C163.652 92.1572 162.899 93.3515 163.068 94.6887Z" fill="#F37A50"/>
<path d="M165.794 95.598C165.755 95.624 165.716 95.637 165.664 95.637C164.989 95.7149 164.444 95.4292 164.21 94.897C163.963 94.3388 164.106 93.6637 164.548 93.2872C164.664 93.1834 164.859 93.1963 164.963 93.3132C165.067 93.43 165.054 93.6247 164.937 93.7286C164.703 93.9363 164.625 94.3388 164.755 94.6503C164.885 94.9489 165.184 95.0917 165.612 95.0398C165.768 95.0268 165.924 95.1437 165.937 95.2994C165.95 95.4293 165.885 95.5461 165.794 95.598Z" fill="#DE623C"/>
<path d="M163.756 103.738C163.613 103.595 163.431 103.517 163.327 103.699C163.068 104.153 162.639 104.893 162.159 105.555C161.679 106.217 161.107 106.866 160.757 107.243C160.614 107.399 160.744 107.542 160.926 107.632C161.692 107.983 163.003 107.775 163.743 106.763C164.483 105.75 164.301 104.283 163.756 103.738Z" fill="white"/>
<path d="M131.443 184.148V187.848C131.443 189.289 130.275 190.471 128.821 190.471H83.6954C82.2544 190.471 81.073 189.302 81.073 187.848V184.148C81.073 183.499 81.3067 182.915 81.6961 182.461C82.1765 181.89 82.8905 181.539 83.6954 181.539H128.821C129.626 181.539 130.34 181.903 130.82 182.461C131.21 182.915 131.443 183.499 131.443 184.148Z" fill="#FAD332"/>
<path d="M84.8898 181.525H83.5786V190.457H84.8898V181.525Z" fill="#FABA23"/>
<path d="M90.3812 181.525H89.0701V190.457H90.3812V181.525Z" fill="#FABA23"/>
<path d="M95.8857 181.525H94.5745V190.457H95.8857V181.525Z" fill="#FABA23"/>
<path d="M101.377 181.525H100.066V190.457H101.377V181.525Z" fill="#FABA23"/>
<path d="M106.881 181.525H105.57V190.457H106.881V181.525Z" fill="#FABA23"/>
<path d="M112.373 181.525H111.062V190.457H112.373V181.525Z" fill="#FABA23"/>
<path d="M117.877 181.525H116.566V190.457H117.877V181.525Z" fill="#FABA23"/>
<path d="M123.369 181.525H122.057V190.457H123.369V181.525Z" fill="#FABA23"/>
<path d="M128.86 181.525H127.549V190.457H128.86V181.525Z" fill="#FABA23"/>
<path d="M130.82 182.447H81.696C82.1764 181.876 82.8904 181.525 83.6953 181.525H128.821C129.626 181.525 130.34 181.889 130.82 182.447Z" fill="#FABA23"/>
<path d="M130.82 189.522H81.696C82.1764 190.094 82.8904 190.444 83.6953 190.444H128.821C129.626 190.457 130.34 190.094 130.82 189.522Z" fill="#FABA23"/>
<path d="M134.598 175.218V178.918C134.598 180.359 133.43 181.54 131.976 181.54H86.8499C85.4089 181.54 84.2275 180.372 84.2275 178.918V175.218C84.2275 174.569 84.4612 173.984 84.8507 173.53C85.331 172.959 86.045 172.608 86.8499 172.608H131.976C132.78 172.608 133.494 172.972 133.975 173.53C134.364 173.984 134.598 174.569 134.598 175.218Z" fill="#FAD332"/>
<path d="M88.0443 172.594H86.7332V181.525H88.0443V172.594Z" fill="#FABA23"/>
<path d="M93.5355 172.594H92.2244V181.525H93.5355V172.594Z" fill="#FABA23"/>
<path d="M99.04 172.594H97.7288V181.525H99.04V172.594Z" fill="#FABA23"/>
<path d="M104.531 172.594H103.22V181.525H104.531V172.594Z" fill="#FABA23"/>
<path d="M110.036 172.594H108.725V181.525H110.036V172.594Z" fill="#FABA23"/>
<path d="M115.527 172.594H114.216V181.525H115.527V172.594Z" fill="#FABA23"/>
<path d="M121.032 172.594H119.72V181.525H121.032V172.594Z" fill="#FABA23"/>
<path d="M126.523 172.594H125.212V181.525H126.523V172.594Z" fill="#FABA23"/>
<path d="M132.027 172.594H130.716V181.525H132.027V172.594Z" fill="#FABA23"/>
<path d="M133.975 173.529H84.8506C85.3309 172.957 86.0449 172.607 86.8498 172.607H131.975C132.78 172.594 133.494 172.957 133.975 173.529Z" fill="#FABA23"/>
<path d="M133.975 180.604H84.8506C85.3309 181.175 86.0449 181.525 86.8498 181.525H131.975C132.78 181.525 133.494 181.162 133.975 180.604Z" fill="#FABA23"/>
<path d="M175.668 182.168C185.914 171.922 185.914 155.31 175.668 145.064C165.422 134.818 148.81 134.818 138.564 145.064C128.318 155.31 128.318 171.922 138.564 182.168C148.81 192.414 165.422 192.414 175.668 182.168Z" fill="#FABA23"/>
<path d="M177.633 170.244C173.973 181.578 161.821 187.783 150.501 184.135C149.32 183.759 148.19 183.278 147.126 182.72C145.321 181.785 143.698 180.604 142.27 179.241C141.725 178.722 141.219 178.189 140.738 177.618C137.207 173.477 135.312 168.063 135.598 162.494C135.688 160.664 136.026 158.82 136.61 157.003C139.336 148.551 146.788 142.943 155.097 142.164C157.927 141.892 160.861 142.19 163.743 143.112C166.235 143.917 168.481 145.137 170.428 146.656C171.013 147.11 171.584 147.604 172.116 148.123C173.557 149.525 174.79 151.109 175.79 152.836C178.737 157.924 179.581 164.195 177.633 170.244Z" fill="#FAD332"/>
<path d="M170.428 146.656L140.725 177.618C137.194 173.477 135.299 168.063 135.584 162.494L155.096 142.164C157.926 141.892 160.86 142.19 163.742 143.112C166.248 143.904 168.494 145.124 170.428 146.656Z" fill="#FAEE6C"/>
<path d="M175.79 152.836L147.126 182.708C145.321 181.773 143.698 180.591 142.27 179.228L172.116 148.11C173.557 149.525 174.79 151.109 175.79 152.836Z" fill="#FAEE6C"/>
<path d="M158.576 143.125C156.031 142.852 155.564 143.112 154.421 145.371C154.707 142.852 154.46 142.385 152.176 141.217C154.72 141.489 155.187 141.23 156.33 138.971C156.057 141.515 156.317 141.983 158.576 143.125Z" fill="white"/>
<path d="M149.566 183.616C147.411 183.396 147.022 183.603 146.061 185.512C146.295 183.383 146.087 182.993 144.166 182.007C146.321 182.227 146.71 182.02 147.671 180.111C147.437 182.253 147.658 182.643 149.566 183.616Z" fill="white"/>
<path d="M166.508 145.864C168.066 144.968 170.286 143.397 169.766 142.631C168.935 141.385 167.884 142.268 167.144 141.411C166.495 140.658 168.663 139.1 172.739 140.619L173.194 140.074L176.478 142.319L175.946 142.787C175.712 145.76 171.675 149.719 167.871 150.213C164.028 150.719 164.431 147.058 166.508 145.864Z" fill="#F37A50"/>
<path d="M179.451 97.3891C186.396 98.3757 188.512 106.814 190.836 122.86C185.669 127.222 182.566 124.431 182.566 124.431C182.566 124.431 176.854 114.071 175.193 110.41C171.181 101.647 176.101 96.9217 179.451 97.3891Z" fill="#D15F0A"/>
<path d="M172.454 139.88L181.489 124.912C181.489 124.912 183.41 120.744 190.823 122.873C191.433 126.742 188.876 133.804 176.517 143.203C174.596 142.775 172.454 139.88 172.454 139.88Z" fill="#D15F0A"/>
</g>
</svg>
